#!OML:ASF I:\Actors\actors\Patient Classification 1\Patient 1\Session 1\Subject1.ASF
:FULLY-SPECIFIED
:DEGREES
602
root -0.634364 17.5567 7.53181 6.88441 0.180103 -8.08089
lowerback 3.2952 5.49452 6.24541
upperback -7.7569 7.98365 0.409192
thorax -9.30891 3.47116 -3.86712
lowerneck -14.6203 -9.53422 -6.02532
upperneck 21.3539 -14.0073 8.55809
head 10.2842 -6.04466 2.04913
rclavicle -2.1916e-014 3.97569e-016
rhumerus 42.6247 -25.5534 -114.129
rradius 18.1234
rwrist 29.0761
rhand 15.5105 -52.9386
rfingers 7.12502
rthumb 40.332 -78.0637
lclavicle -2.1916e-014 3.97569e-016
lhumerus -38.0392 -33.7413 107.951
lradius 110.382
lwrist 73.185
lhand -35.0336 -11.8382
lfingers 7.12502
lthumb -8.1772 17.9836
rfemur -0.57906 22.4181 26.8914
rtibia 0.859846
rfoot -12.2299 -22.5695
rtoes 2.2486
lfemur 5.58662 -40.3097 -13.6634
ltibia -3.25863
lfoot -17.9439 48.9636
ltoes 8.11482
603
root -0.633635 17.5592 7.53777 6.98243 -0.00802025 -7.80367
lowerback 3.1865 5.51698 5.99168
upperback -7.73232 7.97785 0.350842
thorax -9.23944 3.48884 -3.77702
lowerneck -14.6924 -9.44102 -5.9943
upperneck 21.3811 -13.9087 8.65977
head 10.306 -5.98187 2.09167
rclavicle 4.08006e-014 2.10712e-014
rhumerus 42.1047 -25.8972 -114.331
rradius 18.4163
rwrist 28.744
rhand 15.1021 -52.9849
rfingers 7.12502
rthumb 39.9478 -78.2267
lclavicle 4.08006e-014 2.10712e-014
lhumerus -38.1542 -33.8842 107.895
lradius 110.301
lwrist 73.228
lhand -35.1181 -11.9195
lfingers 7.12502
lthumb -8.25872 17.899
rfemur -0.719246 22.545 26.506
rtibia 0.900667
rfoot -12.2103 -22.5709
rtoes 2.12489
lfemur 5.53614 -40.3762 -13.9807
ltibia -3.23024
lfoot -18.3271 49.1099
ltoes 8.67281
604
root -0.63016 17.5589 7.54164 7.03338 -0.1526 -7.76796
lowerback 3.04462 5.53265 6.15077
upperback -7.6326 7.98881 0.299314
thorax -9.01605 3.49316 -3.8929
lowerneck -14.7139 -9.33146 -5.96135
upperneck 21.2206 -13.7954 8.86882
head 10.2582 -5.90834 2.17661
rclavicle -9.93923e-014 -4.41302e-014
rhumerus 41.3754 -25.7019 -114.109
rradius 19.2472
rwrist 28.4612
rhand 15.3181 -53.0743
rfingers 7.12502
rthumb 40.151 -78.2546
lclavicle -9.93923e-014 -4.41302e-014
lhumerus -38.0721 -34.1585 107.694
lradius 110.226
lwrist 73.2522
lhand -35.1103 -12.0112
lfingers 7.12502
lthumb -8.25127 17.8077
rfemur -0.787313 22.5529 26.4282
rtibia 0.918946
rfoot -12.1025 -22.5131
rtoes 1.6981
lfemur 5.5418 -40.3241 -14.0312
ltibia -3.24024
lfoot -18.5798 49.1113
ltoes 9.03451
605
root -0.627058 17.5585 7.54505 7.11005 -0.308521 -7.75293
lowerback 2.9116 5.53436 6.2698
upperback -7.54817 7.98159 0.276539
thorax -8.82645 3.49111 -3.95793
lowerneck -14.8059 -9.2204 -5.75595
upperneck 21.1468 -13.6584 8.80334
head 10.2167 -5.8357 2.14017
rclavicle -7.95139e-015 4.6118e-014
rhumerus 41.2192 -25.2771 -113.822
rradius 19.1103
rwrist 28.3354
rhand 15.7065 -52.7742
rfingers 7.12502
rthumb 40.5163 -77.8424
lclavicle -7.95139e-015 4.6118e-014
lhumerus -37.9206 -34.3542 107.476
lradius 110.184
lwrist 73.2195
lhand -35.0041 -11.6662
lfingers 7.12502
lthumb -8.14873 18.1567
rfemur -0.878614 22.6118 26.3745
rtibia 0.946446
rfoot -11.992 -22.4767
rtoes 1.24387
lfemur 5.52305 -40.2223 -14.0255
ltibia -3.27293
lfoot -18.8978 49.0714
ltoes 9.4604
606
root -0.622642 17.5584 7.54851 7.19815 -0.443429 -7.7239
lowerback 2.8434 5.50689 6.30335
upperback -7.51108 7.94074 0.300422
thorax -8.74877 3.47412 -3.9372
lowerneck -14.9561 -9.08539 -5.38479
upperneck 21.2373 -13.4652 8.42715
head 10.2033 -5.75157 1.97626
rclavicle -2.94698e-014 -1.31198e-014
rhumerus 40.8019 -24.5432 -113.237
rradius 19.4011
rwrist 27.5757
rhand 16.0625 -52.6193
rfingers 7.12502
rthumb 40.8508 -77.583
lclavicle -2.94698e-014 -1.31198e-014
lhumerus -37.8523 -34.4168 107.366
lradius 110.146
lwrist 73.0698
lhand -34.7962 -11.5176
lfingers 7.12502
lthumb -7.94808 18.3129
rfemur -0.945963 22.7984 26.313
rtibia 0.939363
rfoot -11.9908 -22.5584
rtoes 1.25517
lfemur 5.50115 -40.1794 -14.0494
ltibia -3.31658
lfoot -19.0753 49.1126
ltoes 9.69521
607
root -0.617099 17.5583 7.55244 7.2976 -0.576752 -7.67875
lowerback 2.77557 5.49315 6.32087
upperback -7.49217 7.91889 0.331329
thorax -8.69252 3.46657 -3.90336
lowerneck -15.0946 -8.93782 -5.08879
upperneck 21.3407 -13.2598 8.13408
head 10.2052 -5.65847 1.8548
rclavicle 9.10434e-014 2.42517e-014
rhumerus 40.4157 -23.752 -112.58
rradius 19.8154
rwrist 26.4766
rhand 15.8487 -52.3034
rfingers 7.12502
rthumb 40.6499 -77.33
lclavicle 9.10434e-014 2.42517e-014
lhumerus -37.8148 -34.4989 107.326
lradius 110.103
lwrist 72.9024
lhand -34.6514 -11.7148
lfingers 7.12502
lthumb -7.80836 18.1211
rfemur -0.998252 23.0187 26.226
rtibia 0.870914
rfoot -11.9926 -22.6889
rtoes 1.52726
lfemur 5.49377 -40.2414 -14.1191
ltibia -3.36795
lfoot -19.2603 49.2566
ltoes 9.95763
608
root -0.61055 17.5587 7.55488 7.42819 -0.718534 -7.61238
lowerback 2.69973 5.4988 6.34611
upperback -7.49487 7.92186 0.33067
thorax -8.64741 3.4686 -3.90901
lowerneck -15.2546 -8.87948 -5.13547
upperneck 21.5317 -13.1974 8.19723
head 10.3082 -5.61416 1.88556
rclavicle 4.24405e-014 -2.50469e-014
rhumerus 39.92 -22.6428 -111.507
rradius 20.3474
rwrist 24.9733
rhand 15.4127 -52.0167
rfingers 7.12502
rthumb 40.24 -77.1699
lclavicle 4.24405e-014 -2.50469e-014
lhumerus -37.815 -34.6119 107.278
lradius 110.136
lwrist 72.7391
lhand -34.6629 -11.7466
lfingers 7.12502
lthumb -7.81942 18.0888
rfemur -1.11954 23.1346 26.0737
rtibia 0.81152
rfoot -11.8805 -22.7031
rtoes 1.48127
lfemur 5.43413 -40.334 -14.1899
ltibia -3.40784
lfoot -19.4032 49.44
ltoes 10.2186
609
root -0.603043 17.5589 7.55552 7.57509 -0.783999 -7.56959
lowerback 2.61813 5.48895 6.48097
upperback -7.5277 7.90858 0.270863
thorax -8.61232 3.45168 -4.03559
lowerneck -15.2501 -8.86524 -5.16586
upperneck 21.5695 -13.2102 8.33456
head 10.3355 -5.60565 1.93582
rclavicle -2.12203e-014 -2.70347e-014
rhumerus 38.9749 -20.6937 -109.421
rradius 21.2627
rwrist 22.2278
rhand 15.0963 -52.0824
rfingers 7.12502
rthumb 39.9423 -77.3258
lclavicle -2.12203e-014 -2.70347e-014
lhumerus -37.9009 -34.7264 107.214
lradius 110.25
lwrist 72.623
lhand -34.7907 -11.5257
lfingers 7.12502
lthumb -7.94272 18.305
rfemur -1.26821 23.211 25.9329
rtibia 0.765046
rfoot -11.818 -22.7163
rtoes 1.34382
lfemur 5.30303 -40.4833 -14.1971
ltibia -3.41722
lfoot -19.5161 49.6206
ltoes 10.4231
610
root -0.596766 17.5585 7.55658 7.6862 -0.785266 -7.57714
lowerback 2.54252 5.47494 6.704
upperback -7.55657 7.89431 0.18837
thorax -8.56303 3.42798 -4.23366
lowerneck -15.2219 -8.73413 -4.86134
upperneck 21.7013 -13.1198 8.34733
head 10.3505 -5.53437 1.90757
rclavicle 1.80894e-014 1.59028e-015
rhumerus 37.6209 -17.8376 -106.335
rradius 22.7165
rwrist 18.0214
rhand 14.8764 -52.3106
rfingers 7.12502
rthumb 39.7353 -77.616
lclavicle 1.80894e-014 1.59028e-015
lhumerus -37.9436 -34.8148 107.169
lradius 110.32
lwrist 72.6155
lhand -34.9906 -11.2806
lfingers 7.12502
lthumb -8.13574 18.5428
rfemur -1.34887 23.3265 25.8818
rtibia 0.694556
rfoot -11.8309 -22.8048
rtoes 1.59793
lfemur 5.18495 -40.6369 -14.1512
ltibia -3.40258
lfoot -19.6757 49.7471
ltoes 10.6013
611
root -0.592954 17.5589 7.5584 7.74041 -0.766198 -7.58043
lowerback 2.70076 5.43324 6.72656
upperback -7.66224 7.86289 0.215716
thorax -8.7786 3.39854 -4.2414
lowerneck -15.2232 -8.6801 -4.7387
upperneck 21.9582 -13.0773 8.24921
head 10.424 -5.50697 1.85978
rclavicle 3.08613e-014 4.77083e-015
rhumerus 35.8664 -14.0951 -102.374
rradius 24.7593
rwrist 12.676
rhand 14.7904 -52.3083
rfingers 7.12502
rthumb 39.6543 -77.6377
lclavicle 3.08613e-014 4.77083e-015
lhumerus -38.088 -34.6881 107.33
lradius 110.314
lwrist 72.5207
lhand -35.0543 -11.0704
lfingers 7.12502
lthumb -8.19721 18.7506
rfemur -1.38227 23.3865 25.8513
rtibia 0.658316
rfoot -11.8512 -22.8291
rtoes 2.11579
lfemur 5.11285 -40.6905 -14.1226
ltibia -3.38537
lfoot -19.7354 49.7784
ltoes 10.5812
